<svg width="30" height="30" viewBox="0 0 30 30" fill="none" xmlns="http://www.w3.org/2000/svg">
<path d="M15 0C6.716 0 0 6.716 0 15C0 23.284 6.716 30 15 30C23.284 30 30 23.284 30 15C30 6.716 23.284 0 15 0ZM21.674 15.6L13.92 21.724C13.486 22.064 12.782 22.064 12.348 21.724L12.352 21.72C12.138 21.562 12 21.34 12 21.09V8.87C12 8.624 12.13 8.404 12.338 8.246C12.342 8.244 12.344 8.24 12.348 8.236C12.782 7.896 13.486 7.896 13.92 8.236L21.634 14.346C21.646 14.356 21.662 14.358 21.674 14.368C22.108 14.708 22.108 15.26 21.674 15.6Z" fill="#0A171D"/>
</svg>
