<svg width="559" height="120" viewBox="0 0 559 120" fill="none" xmlns="http://www.w3.org/2000/svg">
<path d="M545.88 68.96C545.88 65.6533 545.4 62.64 544.44 59.92C543.533 57.1467 542.173 54.7733 540.36 52.8C538.6 50.7733 536.44 49.2267 533.88 48.16C531.32 47.04 528.413 46.48 525.16 46.48C518.333 46.48 512.92 48.48 508.92 52.48C504.973 56.4267 502.52 61.92 501.56 68.96H545.88ZM557.4 106.96C555.64 109.093 553.533 110.96 551.08 112.56C548.627 114.107 545.987 115.387 543.16 116.4C540.387 117.413 537.507 118.16 534.52 118.64C531.533 119.173 528.573 119.44 525.64 119.44C520.04 119.44 514.867 118.507 510.12 116.64C505.427 114.72 501.347 111.947 497.88 108.32C494.467 104.64 491.8 100.107 489.88 94.72C487.96 89.3333 487 83.1467 487 76.16C487 70.5067 487.853 65.2267 489.56 60.32C491.32 55.4133 493.827 51.1733 497.08 47.6C500.333 43.9733 504.307 41.1467 509 39.12C513.693 37.04 518.973 36 524.84 36C529.693 36 534.173 36.8267 538.28 38.48C542.44 40.08 546.013 42.4267 549 45.52C552.04 48.56 554.413 52.3467 556.12 56.88C557.827 61.36 558.68 66.48 558.68 72.24C558.68 74.48 558.44 75.9733 557.96 76.72C557.48 77.4667 556.573 77.84 555.24 77.84H501.08C501.24 82.96 501.933 87.4133 503.16 91.2C504.44 94.9867 506.2 98.16 508.44 100.72C510.68 103.227 513.347 105.12 516.44 106.4C519.533 107.627 523 108.24 526.84 108.24C530.413 108.24 533.48 107.84 536.04 107.04C538.653 106.187 540.893 105.28 542.76 104.32C544.627 103.36 546.173 102.48 547.4 101.68C548.68 100.827 549.773 100.4 550.68 100.4C551.853 100.4 552.76 100.853 553.4 101.76L557.4 106.96Z" fill="#0A171D"/>
<path d="M472.88 38L439.84 119.04H427.04L394 38H405.6C406.773 38 407.733 38.2933 408.48 38.88C409.227 39.4667 409.733 40.16 410 40.96L430.56 93.12C431.2 95.0933 431.76 97.0133 432.24 98.88C432.72 100.747 433.173 102.613 433.6 104.48C434.027 102.613 434.48 100.747 434.96 98.88C435.44 97.0133 436.027 95.0933 436.72 93.12L457.52 40.96C457.84 40.1067 458.373 39.4133 459.12 38.88C459.867 38.2933 460.747 38 461.76 38H472.88Z" fill="#0A171D"/>
<path d="M367.006 2.14648C368.241 1.43665 369.759 1.43665 370.994 2.14648L376.994 5.59648C378.235 6.31008 379 7.63252 379 9.06411V15.9359C379 17.3675 378.235 18.6899 376.994 19.4035L370.994 22.8535C369.759 23.5633 368.241 23.5633 367.006 22.8535L361.006 19.4035C359.765 18.6899 359 17.3675 359 15.9359V9.06411C359 7.63252 359.765 6.31008 361.006 5.59648L367.006 2.14648Z" fill="#0A171D"/>
<path d="M376.28 37.68V118.72H362.04V37.68H376.28Z" fill="#0A171D"/>
<path d="M344.88 4V118.64H329.36V66.48H267.52V118.64H252V4H267.52V55.12H329.36V4H344.88Z" fill="#0A171D"/>
<path d="M180.32 98.32C182.933 101.84 185.787 104.32 188.88 105.76C192.027 107.2 195.467 107.92 199.2 107.92C206.827 107.92 212.667 105.227 216.72 99.84C220.773 94.4533 222.8 86.4267 222.8 75.76C222.8 65.84 220.987 58.56 217.36 53.92C213.787 49.2267 208.667 46.88 202 46.88C197.36 46.88 193.307 47.9467 189.84 50.08C186.427 52.2133 183.253 55.2267 180.32 59.12V98.32ZM180.32 48.48C183.733 44.5333 187.573 41.3867 191.84 39.04C196.16 36.6933 201.12 35.52 206.72 35.52C211.467 35.52 215.733 36.4267 219.52 38.24C223.36 40.0533 226.613 42.6933 229.28 46.16C231.947 49.5733 233.973 53.7333 235.36 58.64C236.8 63.5467 237.52 69.0667 237.52 75.2C237.52 81.76 236.72 87.7333 235.12 93.12C233.52 98.5067 231.2 103.12 228.16 106.96C225.173 110.747 221.52 113.707 217.2 115.84C212.88 117.92 208.027 118.96 202.64 118.96C197.307 118.96 192.8 117.973 189.12 116C185.493 113.973 182.32 111.12 179.6 107.44L178.88 114.8C178.453 116.827 177.227 117.84 175.2 117.84H166V0H180.32V48.48Z" fill="#0A171D"/>
<path d="M52.24 78.04C52.24 84.44 51.44 90.1733 49.84 95.24C48.2933 100.307 45.9733 104.6 42.88 108.12C39.84 111.587 36.08 114.253 31.6 116.12C27.12 117.987 21.9733 118.92 16.16 118.92C10.88 118.92 5.49333 118.173 0 116.68C0.106667 115.133 0.24 113.613 0.4 112.12C0.56 110.573 0.693334 109.053 0.8 107.56C0.906667 106.653 1.22667 105.933 1.76 105.4C2.34667 104.813 3.22667 104.52 4.4 104.52C5.36 104.52 6.61333 104.76 8.16 105.24C9.76 105.72 11.8933 105.96 14.56 105.96C18.08 105.96 21.2267 105.427 24 104.36C26.7733 103.293 29.0933 101.64 30.96 99.4C32.8267 97.16 34.24 94.3067 35.2 90.84C36.2133 87.32 36.72 83.16 36.72 78.36V3H52.24V78.04Z" fill="#0A171D"/>
<path d="M105.891 11.1228C107.116 10.4265 108.618 10.4265 109.843 11.1228L113.749 13.3422C115 14.053 115.773 15.3811 115.773 16.82V21.1486C115.773 22.5876 115 23.9156 113.749 24.6264L109.843 26.8459C108.618 27.5421 107.116 27.5421 105.891 26.8459L101.985 24.6264C100.734 23.9156 99.9607 22.5876 99.9607 21.1486V16.82C99.9607 15.3811 100.734 14.053 101.985 13.3422L105.891 11.1228Z" fill="#0A171D"/>
<path d="M80.7347 25.4976C81.9601 24.8014 83.4614 24.8014 84.6868 25.4976L88.593 27.7171C89.8441 28.4279 90.6169 29.756 90.6169 31.1949V35.5235C90.6169 36.9624 89.8441 38.2905 88.593 39.0013L84.6868 41.2208C83.4614 41.917 81.9601 41.917 80.7347 41.2208L76.8285 39.0013C75.5774 38.2905 74.8046 36.9624 74.8046 35.5235V31.1949C74.8046 29.756 75.5774 28.4279 76.8285 27.7171L80.7347 25.4976Z" fill="#0A171D"/>
<path d="M97.4455 25.4976C98.6709 24.8014 100.172 24.8014 101.398 25.4976L105.304 27.7171C106.555 28.4279 107.328 29.756 107.328 31.1949V35.5235C107.328 36.9624 106.555 38.2905 105.304 39.0013L101.398 41.2208C100.172 41.917 98.6709 41.917 97.4455 41.2208L93.5393 39.0013C92.2883 38.2905 91.5154 36.9624 91.5154 35.5235V31.1949C91.5154 29.756 92.2883 28.4279 93.5393 27.7171L97.4455 25.4976Z" fill="#F3A257"/>
<path d="M114.336 25.4976C115.561 24.8014 117.063 24.8014 118.288 25.4976L122.194 27.717C123.445 28.4279 124.218 29.7559 124.218 31.1949V35.5235C124.218 36.9624 123.445 38.2905 122.194 39.0013L118.288 41.2207C117.063 41.917 115.561 41.917 114.336 41.2207L110.43 39.0013C109.179 38.2904 108.406 36.9624 108.406 35.5235V31.1949C108.406 29.7559 109.179 28.4279 110.43 27.717L114.336 25.4976Z" fill="#0A171D"/>
<path d="M130.93 25.1228C132.156 24.4265 133.657 24.4265 134.882 25.1228L138.788 27.3422C140.04 28.053 140.812 29.3811 140.812 30.82V35.1486C140.812 36.5876 140.04 37.9156 138.788 38.6264L134.882 40.8459C133.657 41.5421 132.156 41.5421 130.93 40.8459L127.024 38.6264C125.773 37.9156 125 36.5876 125 35.1486V30.82C125 29.3811 125.773 28.053 127.024 27.3422L130.93 25.1228Z" fill="#0A171D"/>
<path d="M122.781 39.8725C124.007 39.1763 125.508 39.1763 126.733 39.8725L130.639 42.0919C131.891 42.8028 132.663 44.1308 132.663 45.5698V49.8984C132.663 51.3373 131.891 52.6654 130.639 53.3762L126.733 55.5956C125.508 56.2919 124.007 56.2919 122.781 55.5956L118.875 53.3762C117.624 52.6654 116.851 51.3373 116.851 49.8984V45.5698C116.851 44.1308 117.624 42.8028 118.875 42.0919L122.781 39.8725Z" fill="#0A171D"/>
<path d="M89.5394 39.8725C90.7648 39.1763 92.2661 39.1763 93.4915 39.8725L97.3977 42.0919C98.6488 42.8028 99.4216 44.1308 99.4216 45.5698V49.8984C99.4216 51.3373 98.6488 52.6654 97.3977 53.3762L93.4915 55.5956C92.2661 56.2919 90.7648 56.2919 89.5394 55.5956L85.6332 53.3762C84.3821 52.6654 83.6093 51.3373 83.6093 49.8984V45.5698C83.6093 44.1308 84.3821 42.8028 85.6332 42.0919L89.5394 39.8725Z" fill="#0A171D"/>
<path d="M71.9302 39.8725C73.1555 39.1763 74.6569 39.1763 75.8822 39.8725L79.7884 42.092C81.0395 42.8028 81.8124 44.1309 81.8124 45.5698V49.8984C81.8124 51.3373 81.0395 52.6654 79.7884 53.3762L75.8822 55.5957C74.6569 56.2919 73.1555 56.2919 71.9302 55.5957L68.024 53.3762C66.7729 52.6654 66 51.3373 66 49.8984V45.5698C66 44.1309 66.7729 42.8028 68.024 42.092L71.9302 39.8725Z" fill="#0A171D"/>
<path d="M63.9302 54.1228C65.1555 53.4265 66.6569 53.4265 67.8822 54.1228L71.7884 56.3422C73.0395 57.053 73.8124 58.3811 73.8124 59.82V64.1486C73.8124 65.5876 73.0395 66.9156 71.7884 67.6264L67.8822 69.8459C66.6569 70.5421 65.1555 70.5421 63.9302 69.8459L60.024 67.6264C58.7729 66.9156 58 65.5876 58 64.1486V59.82C58 58.3811 58.7729 57.053 60.024 56.3422L63.9302 54.1228Z" fill="#0A171D"/>
<path d="M80.8288 54.1333C82.0542 53.4371 83.5555 53.4371 84.7809 54.1333L88.6871 56.3528C89.9382 57.0636 90.7111 58.3917 90.7111 59.8306V64.1592C90.7111 65.5981 89.9382 66.9262 88.6871 67.637L84.7809 69.8565C83.5555 70.5527 82.0542 70.5527 80.8288 69.8565L76.9226 67.637C75.6716 66.9262 74.8987 65.5981 74.8987 64.1592V59.8306C74.8987 58.3917 75.6716 57.0636 76.9226 56.3528L80.8288 54.1333Z" fill="#0A171D"/>
<path d="M134.064 45.6478C134.064 41.9583 138.117 39.9037 140.625 42.6102C144.374 46.6568 147.23 47.5664 149.194 53.3386C151.217 59.0514 152.229 65.4488 152.229 72.5302C152.229 79.6712 151.217 86.0987 149.194 91.8115C147.23 97.5243 144.374 102.404 140.625 106.451C136.876 110.497 132.353 113.621 127.056 115.823C121.76 117.965 115.809 119.037 109.204 119.037C102.539 119.037 96.5283 117.965 91.1725 115.823C85.8763 113.621 81.3533 110.497 77.6043 106.451C73.8553 102.404 70.9693 97.5243 68.946 91.8115C66.9822 86.0987 66 81.8959 66 74.7549C66 72.3983 67.9611 70.5597 70.3177 70.5597H78.1711C80.4975 70.5597 82.3354 72.5183 82.3354 74.8447C82.3354 85.556 84.5371 91.6924 88.9406 97.7027C93.4038 103.654 100.159 106.629 109.204 106.629C118.13 106.629 124.795 103.654 129.199 97.7027C133.602 91.6924 135.804 83.3314 135.804 72.62C135.804 67.3696 135.279 62.6851 134.233 58.5659C134.124 58.1374 134.064 57.698 134.064 57.2559V45.6478Z" fill="#0A171D"/>
</svg>
